<svg width="36" height="36" viewBox="0 0 36 36" fill="none" xmlns="http://www.w3.org/2000/svg">
<path d="M15.75 4.5H8.25V5.99998H15.75V4.5Z" fill="#2F80F3"/>
<path d="M9.74997 7.50002H8.25V9H9.74997V7.50002Z" fill="#2F80F3"/>
<path d="M12.75 7.50002H11.25V9H12.75V7.50002Z" fill="#2F80F3"/>
<path d="M32.0302 6.21977L26.0303 0.219727C25.8896 0.0791016 25.6989 0 25.5 0H6C4.75737 0 3.75 1.00737 3.75 2.25V33.75C3.75 34.9926 4.75737 36 6 36H30C31.2426 36 32.25 34.9926 32.25 33.75V6.75C32.25 6.55109 32.1709 6.3604 32.0302 6.21977ZM30.75 33.75C30.75 34.1642 30.4142 34.5 30 34.5H6C5.58579 34.5 5.24998 34.1642 5.24998 33.75V2.25C5.24998 1.83579 5.58579 1.49998 6 1.49998H25.1895L30.75 7.0605V33.75Z" fill="#2F80F3"/>
<path d="M27 5.99998C26.5858 5.99998 26.25 5.66417 26.25 5.24995V0.749954H24.75V5.24995C24.75 6.49259 25.7574 7.49995 27 7.49995H28.5V5.99998H27Z" fill="#2F80F3"/>
<path d="M21.75 12C18.0221 12 15 15.0221 15 18.75C15 22.4779 18.0221 25.5 21.75 25.5C25.4762 25.4959 28.4959 22.4762 28.5 18.75C28.5 15.0221 25.478 12 21.75 12ZM21.75 24C18.8505 24 16.5 21.6495 16.5 18.75C16.5 15.8505 18.8505 13.4999 21.75 13.4999C24.6479 13.5037 26.9963 15.852 27 18.75C27 21.6495 24.6496 24 21.75 24Z" fill="#2F80F3"/>
<path d="M24.75 23.25V29.9393L22.2187 27.9143C21.9447 27.6949 21.5552 27.6949 21.2812 27.9143L18.75 29.9393V23.25H17.25V31.5C17.2501 31.6702 17.3081 31.8354 17.4145 31.9683C17.6734 32.2917 18.1454 32.3439 18.4687 32.085L21.75 29.46L25.0312 32.0858C25.1642 32.1922 25.3296 32.2501 25.5 32.25C25.9142 32.25 26.25 31.9142 26.25 31.5V23.25H24.75Z" fill="#2F80F3"/>
<path d="M21.75 15C19.6789 15 18 16.6789 18 18.7499C18 20.8211 19.6789 22.5 21.75 22.5C23.82 22.4975 25.4975 20.82 25.5 18.75C25.5 16.6789 23.821 15 21.75 15ZM21.75 21C20.5073 21 19.5 19.9926 19.5 18.75C19.5 17.5074 20.5073 16.5 21.75 16.5C22.9926 16.5 24 17.5074 24 18.75C24 19.9926 22.9926 21 21.75 21Z" fill="#2F80F3"/>
<path d="M15 13.5V12H9.00002C8.58581 12 8.25 12.3358 8.25 12.7501V20.25C8.25 20.6642 8.58581 21 9.00002 21H12.75V19.5001H9.74997V13.5H15Z" fill="#2F80F3"/>
<path d="M9.74997 23.25H8.25V24.75H9.74997V23.25Z" fill="#2F80F3"/>
<path d="M14.25 23.25H11.25V24.75H14.25V23.25Z" fill="#2F80F3"/>
<path d="M15 26.25H8.25V27.7499H15V26.25Z" fill="#2F80F3"/>
<path d="M15 29.25H8.25V30.75H15V29.25Z" fill="#2F80F3"/>
</svg>
