<svg width="45" height="45" viewBox="0 0 45 45" fill="none" xmlns="http://www.w3.org/2000/svg">
<g clip-path="url(#clip0)">
<path d="M44.9455 25.0853C44.613 22.7816 42.8032 20.9717 40.4994 20.6392V19.2757C40.4994 15.5138 37.6397 12.4508 34.1245 12.4508C30.7105 12.4508 27.8523 15.4208 27.7496 19.0717H27.7931L27.7496 19.0792V33.8593C27.7496 38.5842 24.2171 42.4212 19.8747 42.4212C15.5323 42.4212 11.9998 38.579 11.9998 33.8593V32.579C13.0873 32.579 14.2498 31.7908 14.2498 29.5791V27.6929C19.0632 26.4621 22.4997 22.3289 22.4997 17.643V16.0793H20.9997L20.9682 6.31818C20.9573 4.51136 19.6608 2.96864 17.8827 2.64699C17.4992 1.47203 16.2358 0.830419 15.0607 1.21404C13.8858 1.59756 13.2441 2.86101 13.6278 4.03606C14.0113 5.21101 15.2747 5.85263 16.4498 5.46901C17.0789 5.2636 17.5849 4.79027 17.8317 4.17621C18.7926 4.44958 19.4582 5.3237 19.466 6.32268L19.4997 16.0793H17.9997V17.6648C17.9399 20.2735 16.1909 22.5405 13.6828 23.2604C12.3408 23.6862 10.8999 23.6862 9.55786 23.2604C7.05261 22.5381 5.30758 20.2714 5.24992 17.6648V16.0793H2.99995V6.32943C3.00427 5.31573 3.68601 4.42999 4.66493 4.16646C5.12139 5.32848 6.4334 5.90034 7.59542 5.44388C8.75743 4.98742 9.3293 3.67531 8.87283 2.51339C8.41637 1.35147 7.10427 0.779513 5.94235 1.23598C5.31273 1.48338 4.82693 1.99965 4.61843 2.64324C2.82099 2.95036 1.50495 4.50593 1.49998 6.32943V16.0793H0V17.6393C0 22.3304 3.4387 26.4651 8.24988 27.6929V29.5791C8.24988 31.7908 9.41236 32.579 10.4998 32.579V33.8593C10.4998 39.4092 14.705 43.9211 19.8747 43.9211C25.0444 43.9211 29.2496 39.4039 29.2496 33.8593V19.1152C29.3246 16.269 31.513 13.9531 34.1245 13.9531C36.8124 13.9531 38.9994 16.341 38.9994 19.278V20.6392C36.1297 21.0534 34.1391 23.7156 34.5533 26.5853C34.9675 29.4551 37.6297 31.4456 40.4994 31.0314C43.3691 30.6173 45.3597 27.955 44.9455 25.0853ZM15.7498 4.07947C15.3356 4.07947 14.9998 3.74366 14.9998 3.32948C14.9998 2.91529 15.3356 2.57949 15.7498 2.57949C16.1639 2.57949 16.4998 2.91529 16.4998 3.32948C16.4998 3.74366 16.1639 4.07947 15.7498 4.07947ZM6.7499 2.57949C7.16408 2.57949 7.49989 2.91529 7.49989 3.32948C7.49989 3.74366 7.16408 4.07947 6.7499 4.07947C6.33572 4.07947 5.99991 3.74366 5.99991 3.32948C5.99991 2.91529 6.33572 2.57949 6.7499 2.57949ZM1.49998 17.6393V17.5793H3.74994V17.6648C3.80619 20.9245 5.97488 23.7693 9.10336 24.6869C10.7427 25.206 12.5024 25.206 14.1418 24.6869C17.2718 23.7705 19.4424 20.9256 19.4997 17.6648V17.5793H20.9997V17.6393C20.9997 21.8115 17.7837 25.4827 13.3498 26.3706C12.3086 26.5791 11.2421 26.6314 10.1856 26.5259C9.83779 26.4921 9.49204 26.4398 9.14986 26.3691C4.71593 25.4827 1.49998 21.8115 1.49998 17.6393ZM10.4998 31.0791C9.82485 31.0791 9.74985 30.0291 9.74985 29.5791V27.9876C9.80985 27.9951 9.87135 27.9981 9.9321 28.0041C10.0071 28.0124 10.0821 28.0184 10.1571 28.0251C10.5118 28.0566 10.8696 28.0776 11.2303 28.0784H11.2678C11.6278 28.0784 11.9848 28.0566 12.3373 28.0251C12.4123 28.0184 12.4918 28.0124 12.5691 28.0041C12.6283 27.9974 12.6898 27.9951 12.7491 27.9876V29.5791C12.7491 30.0291 12.6741 31.0791 11.9991 31.0791H10.4998ZM39.7494 29.5791C37.6784 29.5791 35.9995 27.9001 35.9995 25.8291C35.9995 23.7581 37.6784 22.0792 39.7494 22.0792C41.8204 22.0792 43.4993 23.7581 43.4993 25.8291C43.4969 27.8992 41.8194 29.5767 39.7494 29.5791Z" fill="#2F80F3"/>
<path d="M39.7495 23.5791C38.5068 23.5791 37.4995 24.5864 37.4995 25.8291C37.4995 27.0717 38.5068 28.079 39.7495 28.079C40.9921 28.079 41.9994 27.0717 41.9994 25.8291C41.9994 24.5864 40.9921 23.5791 39.7495 23.5791ZM39.7495 26.5791C39.3353 26.5791 38.9995 26.2432 38.9995 25.8291C38.9995 25.4149 39.3353 25.0791 39.7495 25.0791C40.1637 25.0791 40.4995 25.4149 40.4995 25.8291C40.4995 26.2432 40.1637 26.5791 39.7495 26.5791Z" fill="#2F80F3"/>
</g>
<defs>
<clipPath id="clip0">
<rect width="45" height="45" fill="white"/>
</clipPath>
</defs>
</svg>
