<svg width="34" height="34" viewBox="0 0 34 34" fill="none" xmlns="http://www.w3.org/2000/svg">
<g clip-path="url(#clip0)">
<path d="M24.9322 20.9666C24.9322 20.6539 24.6783 20.4 24.3656 20.4H20.9656C20.6528 20.4 20.3989 20.6539 20.3989 20.9666C20.3989 21.2794 20.6528 21.5333 20.9656 21.5333H24.3656C24.6783 21.5334 24.9322 21.2795 24.9322 20.9666Z" fill="#2F80F3" stroke="#2F80F3" stroke-width="0.3"/>
<path d="M22.6655 6.23336V3.40001C22.6655 3.08723 22.4116 2.83336 22.0989 2.83336C21.7861 2.83336 21.5322 3.08723 21.5322 3.40001V6.23336C21.5322 7.79564 22.8032 9.06672 24.3656 9.06672H29.4656V19.8334C29.4656 20.1461 29.7195 20.4 30.0322 20.4C30.345 20.4 30.5989 20.1461 30.5989 19.8334V8.50001C30.5989 8.18723 30.345 7.93336 30.0322 7.93336H24.3656C23.4283 7.93336 22.6655 7.17062 22.6655 6.23336Z" fill="#2F80F3" stroke="#2F80F3" stroke-width="0.3"/>
<path d="M24.3656 13.6H19.8323C19.5195 13.6 19.2656 13.8539 19.2656 14.1666C19.2656 14.4794 19.5195 14.7333 19.8323 14.7333H24.3656C24.6784 14.7333 24.9323 14.4794 24.9323 14.1666C24.9323 13.8539 24.6785 13.6 24.3656 13.6Z" fill="#2F80F3" stroke="#2F80F3" stroke-width="0.3"/>
<path d="M18.1324 14.1666C18.1324 13.8539 17.8785 13.6 17.5658 13.6H14.1658C13.853 13.6 13.5991 13.8539 13.5991 14.1666C13.5991 14.4794 13.853 14.7333 14.1658 14.7333H17.5658C17.8785 14.7334 18.1324 14.4795 18.1324 14.1666Z" fill="#2F80F3" stroke="#2F80F3" stroke-width="0.3"/>
<path d="M14.1655 17C13.8527 17 13.5989 17.2539 13.5989 17.5666C13.5989 17.8794 13.8527 18.1333 14.1655 18.1333H15.2989C15.6117 18.1333 15.8655 17.8794 15.8655 17.5666C15.8655 17.2539 15.6117 17 15.2989 17H14.1655Z" fill="#2F80F3" stroke="#2F80F3" stroke-width="0.3"/>
<path d="M14.1655 11.3334H19.8322C20.1449 11.3334 20.3988 11.0795 20.3988 10.7667C20.3988 10.4539 20.1449 10.2001 19.8322 10.2001H14.1655C13.8527 10.2001 13.5989 10.4539 13.5989 10.7667C13.5989 11.0795 13.8527 11.3334 14.1655 11.3334Z" fill="#2F80F3" stroke="#2F80F3" stroke-width="0.3"/>
<path d="M17.5657 18.1334H23.2323C23.5451 18.1334 23.799 17.8795 23.799 17.5667C23.799 17.2539 23.5451 17.0001 23.2323 17.0001H17.5657C17.2529 17.0001 16.999 17.2539 16.999 17.5667C16.999 17.8795 17.2529 18.1334 17.5657 18.1334Z" fill="#2F80F3" stroke="#2F80F3" stroke-width="0.3"/>
<path d="M20.9656 23.8C20.6528 23.8 20.3989 24.0539 20.3989 24.3666C20.3989 24.6794 20.6528 24.9333 20.9656 24.9333H22.0989C22.4117 24.9333 22.6656 24.6794 22.6656 24.3666C22.6656 24.0539 22.4117 23.8 22.0989 23.8H20.9656Z" fill="#2F80F3" stroke="#2F80F3" stroke-width="0.3"/>
<path d="M18.6989 20.4H14.1655C13.8527 20.4 13.5989 20.6539 13.5989 20.9666C13.5989 21.2794 13.8527 21.5333 14.1655 21.5333H18.6989C19.0117 21.5333 19.2655 21.2794 19.2655 20.9666C19.2655 20.6539 19.0117 20.4 18.6989 20.4Z" fill="#2F80F3" stroke="#2F80F3" stroke-width="0.3"/>
<path d="M18.6989 23.8H14.1655C13.8527 23.8 13.5989 24.0539 13.5989 24.3666C13.5989 24.6794 13.8527 24.9333 14.1655 24.9333H18.6989C19.0117 24.9333 19.2655 24.6794 19.2655 24.3666C19.2655 24.0539 19.0117 23.8 18.6989 23.8Z" fill="#2F80F3" stroke="#2F80F3" stroke-width="0.3"/>
<path d="M32.1907 23.3416L31.0573 22.2082C30.1863 21.3373 28.8592 21.339 27.9894 22.2082L20.5649 29.6327C20.459 29.7387 20.3989 29.8832 20.3989 30.0334V33.4334C20.3989 33.7461 20.6528 34 20.9656 34H24.3656C24.5157 34 24.6602 33.94 24.7662 33.834L32.1907 26.4095C33.0934 25.5068 33.0934 24.2449 32.1907 23.3416ZM27.2567 24.5435L28.1554 25.4422L23.2322 30.3655L22.3335 29.4667L27.2567 24.5435ZM21.5323 32.8667V30.2679L24.131 32.8667H21.5323ZM24.9323 32.0654L24.0335 31.1667L28.9568 26.2434L29.8555 27.1422L24.9323 32.0654ZM31.3894 25.6082L30.6567 26.341L28.058 23.7422L28.7907 23.0095C29.2383 22.5624 29.8062 22.5601 30.2561 23.0095L31.3894 24.1429C31.8478 24.6019 31.8478 25.1498 31.3894 25.6082Z" fill="#2F80F3" stroke="#2F80F3" stroke-width="0.3"/>
<path d="M18.699 32.8666H3.96561C3.02836 32.8666 2.26561 32.1039 2.26561 31.1666V2.83336C2.26561 1.8961 3.02836 1.13336 3.96561 1.13336H21.8644L27.365 6.63398C27.5865 6.85558 27.9447 6.85558 28.1662 6.63398C28.3878 6.41245 28.3878 6.05426 28.1662 5.83273L22.4996 0.166016C22.3936 0.0595 22.2491 0 22.099 0H3.96561C2.40334 0 1.13232 1.27102 1.13232 2.83336V31.1667C1.13232 32.729 2.40334 34.0001 3.96568 34.0001H18.699C19.0118 34.0001 19.2657 33.7462 19.2657 33.4334C19.2657 33.1206 19.0117 32.8666 18.699 32.8666Z" fill="#2F80F3" stroke="#2F80F3" stroke-width="0.3"/>
<path d="M18.6989 27.2H14.1655C13.8527 27.2 13.5989 27.4539 13.5989 27.7666C13.5989 28.0794 13.8527 28.3333 14.1655 28.3333H18.6989C19.0117 28.3333 19.2655 28.0794 19.2655 27.7666C19.2655 27.4539 19.0117 27.2 18.6989 27.2Z" fill="#2F80F3" stroke="#2F80F3" stroke-width="0.3"/>
<path d="M11.3324 10.7666C11.3324 10.4539 11.0785 10.2 10.7657 10.2H7.36572C7.05294 10.2 6.79907 10.4539 6.79907 10.7666V14.1666C6.79907 14.4794 7.05294 14.7333 7.36572 14.7333H10.7657C11.0785 14.7333 11.3324 14.4794 11.3324 14.1666V10.7666ZM10.199 13.6H7.93236V11.3334H10.199V13.6Z" fill="#2F80F3" stroke="#2F80F3" stroke-width="0.3"/>
<path d="M7.36572 28.3334H10.7657C11.0785 28.3334 11.3324 28.0795 11.3324 27.7667V24.3667C11.3324 24.0539 11.0785 23.8001 10.7657 23.8001H7.36572C7.05294 23.8001 6.79907 24.0539 6.79907 24.3667V27.7667C6.79907 28.0795 7.05294 28.3334 7.36572 28.3334ZM7.93243 24.9334H10.1991V27.2H7.93243V24.9334Z" fill="#2F80F3" stroke="#2F80F3" stroke-width="0.3"/>
<path d="M8.09836 21.3673C8.20487 21.4738 8.34937 21.5333 8.49899 21.5333C8.51771 21.5333 8.53584 21.5328 8.5551 21.5304C8.72397 21.514 8.87637 21.4222 8.97047 21.2811L11.2371 17.8811C11.4105 17.6204 11.3402 17.2685 11.0801 17.0951C10.8189 16.9211 10.4681 16.992 10.2941 17.2521L8.41113 20.0769L7.76626 19.4327C7.54473 19.2111 7.18653 19.2111 6.965 19.4327C6.74347 19.6543 6.7434 20.0124 6.965 20.2339L8.09836 21.3673Z" fill="#2F80F3" stroke="#2F80F3" stroke-width="0.3"/>
</g>
<defs>
<clipPath id="clip0">
<rect width="34" height="34" fill="white"/>
</clipPath>
</defs>
</svg>
