<svg width="34" height="34" viewBox="0 0 34 34" fill="none" xmlns="http://www.w3.org/2000/svg">
<path d="M34 12.6844C34 13.6512 33.8416 14.605 33.5342 15.5218C32.09 22.0563 19.6019 29.9611 19.0706 30.2975C18.9046 30.4006 18.7183 30.4545 18.5285 30.4545C18.3389 30.4545 18.1501 30.4067 17.9841 30.2975C17.8413 30.2045 14.3229 27.9842 10.7556 24.9323C10.3285 24.5642 10.2836 23.929 10.642 23.5037C11.0091 23.082 11.6435 23.0306 12.0714 23.3891C14.7305 25.6608 17.4177 27.4974 18.5335 28.2374C22.2841 25.7921 30.564 19.5708 31.5789 14.9826C31.844 14.172 31.9637 13.4349 31.9637 12.6866C31.9637 10.0818 30.5456 7.68062 28.262 6.4227C25.3457 4.80455 21.4421 5.55069 19.3086 8.12259C18.9252 8.58698 18.1368 8.58698 17.7461 8.12259C15.6061 5.54888 11.7054 4.80852 8.79314 6.4198C6.50227 7.68062 5.08412 10.0804 5.08412 12.6826C5.08412 13.4259 5.20999 14.1662 5.44436 14.8813C5.59481 15.5504 5.88271 16.2047 6.24909 16.8835H12.1647L14.1963 12.2146C14.3702 11.815 14.7858 11.5636 15.2133 11.6085C15.6488 11.6464 16.0119 11.9596 16.1088 12.385L17.6044 18.7078L19.539 15.5356C19.7213 15.2343 20.0493 15.0502 20.4038 15.0502H24.0752C24.634 15.0502 25.0882 15.5027 25.0882 16.064C25.0882 16.6224 24.634 17.0774 24.0752 17.0774H20.9727L18.0583 21.8646C17.8724 22.1698 17.5447 22.3521 17.1964 22.3521C17.1411 22.3521 17.0875 22.3478 17.038 22.3402C16.6296 22.2747 16.3081 21.9738 16.2101 21.5742L14.8433 15.8148L13.7633 18.3006C13.602 18.6742 13.2364 18.91 12.8331 18.91H1.01342C0.458609 18.9097 0 18.4561 0 17.8966C0 17.3382 0.458609 16.8832 1.01342 16.8832H3.98534C3.77448 16.3801 3.60413 15.8918 3.49852 15.4195C3.21569 14.5992 3.0627 13.644 3.0627 12.6823C3.0627 9.33964 4.8805 6.26211 7.81769 4.64396C11.2196 2.76214 15.7215 3.35385 18.5328 5.99555C21.3365 3.35349 25.8351 2.76214 29.2428 4.64396C32.1764 6.25994 34 9.33964 34 12.6844Z" fill="#2F80F3"/>
</svg>
