<svg width="45" height="45" viewBox="0 0 45 45" fill="none" xmlns="http://www.w3.org/2000/svg">
<path d="M22.5 0C10.094 0 0 10.094 0 22.5C0 34.906 10.094 45 22.5 45C34.906 45 45 34.906 45 22.5C45 10.094 34.906 0 22.5 0ZM22.5 43.1251C11.1271 43.1251 1.87489 33.8729 1.87489 22.5C1.87489 11.1271 11.1271 1.87489 22.5 1.87489C33.8729 1.87489 43.1251 11.1271 43.1251 22.5C43.1251 33.8729 33.8729 43.1251 22.5 43.1251Z" fill="#2F80F3"/>
<path d="M40.3115 28.3741C40.9339 26.4841 41.2498 24.508 41.2498 22.4999C41.2498 12.1611 32.8387 3.75 22.4999 3.75C12.1611 3.75 3.75 12.1611 3.75 22.4999C3.75 32.8387 12.1611 41.2498 22.4999 41.2498C29.7457 41.2498 36.4151 37.0077 39.4892 30.4423L37.7905 29.6475C37.0818 31.1616 36.1583 32.5349 35.071 33.7451L33.7688 32.4439L32.4429 33.7695L33.7386 35.0641C31.3816 37.1642 28.4634 38.5894 25.3124 39.1273V37.5H23.4375V39.3412C23.1261 39.3581 22.814 39.3749 22.4999 39.3749C22.183 39.3749 21.8747 39.345 21.5623 39.3272V37.5H19.6874V39.1208C16.4832 38.5798 13.59 37.1371 11.2677 35.0576L12.5569 33.7688L11.231 32.4429L9.94217 33.732C7.46338 30.9635 5.8913 27.3823 5.67261 23.4375H7.49977V21.5623H5.67261C5.8913 17.6175 7.46338 14.0363 9.94217 11.2677L11.231 12.5569L12.5569 11.231L11.2677 9.94217C13.59 7.86266 16.4832 6.42002 19.6874 5.87894V7.49977H21.5623V5.67261C21.8747 5.65475 22.183 5.62489 22.4999 5.62489C22.8168 5.62489 23.1251 5.65475 23.4375 5.67261V7.49977H25.3124V5.87894C28.5166 6.42002 31.4098 7.86266 33.732 9.94217L32.4429 11.231L33.7688 12.5569L35.0576 11.2677C37.5364 14.0363 39.1085 17.6175 39.3272 21.5623H37.5V23.4375H39.3385C39.2568 24.9224 38.9935 26.3822 38.5303 27.7864L40.3115 28.3741Z" fill="#2F80F3"/>
<path d="M31.2124 12.4622L22.5002 21.1743L15.663 14.337L14.3374 15.6626L21.1747 22.4999L19.9624 23.7122L21.288 25.0377L22.5002 23.8255L23.7125 25.0377L25.0381 23.7122L23.8258 22.4999L32.538 13.7877L31.2124 12.4622Z" fill="#2F80F3"/>
</svg>
