<svg width="45" height="45" viewBox="0 0 45 45" fill="none" xmlns="http://www.w3.org/2000/svg">
<path d="M42.4269 42.6958L40.4362 31.0412C40.2216 29.7855 39.3309 28.7768 38.1112 28.4089L32.7418 26.7888C32.6306 25.4762 32.0925 24.2379 31.1969 23.2578C30.4805 22.4738 29.5794 21.903 28.5862 21.588C28.7561 21.3993 28.9137 21.2113 29.0583 21.0275C30.3352 19.4035 31.0188 17.6144 31.1928 16.3935H31.607C32.6844 16.3935 33.5609 15.5171 33.5609 14.4396V13.438C33.5609 12.719 33.1565 12.0675 32.5482 11.7294V9.3208C32.5482 8.95685 32.2531 8.6618 31.8892 8.6618C31.5252 8.6618 31.2303 8.95676 31.2303 9.3208V12.0247C30.9736 12.0692 30.6674 12.1462 30.3542 12.2781C30.3221 12.2898 30.2909 12.3034 30.2613 12.3196C30.1906 12.3519 30.1198 12.3859 30.0492 12.4242V7.11369C30.0492 5.64653 28.8556 4.45298 27.3885 4.45298H25.5696C24.9422 4.45298 24.3294 4.67156 23.8437 5.06865L23.6652 5.21455C23.3373 5.48262 22.9235 5.63027 22.5 5.63027C22.0765 5.63027 21.6626 5.48262 21.3347 5.21455L21.1563 5.06865C20.6706 4.67165 20.0578 4.45298 19.4304 4.45298H17.6113C16.1442 4.45298 14.9506 5.64653 14.9506 7.11369V12.4242C14.8801 12.3859 14.8092 12.3519 14.7385 12.3196C14.7089 12.3034 14.6778 12.2898 14.6457 12.2781C14.3325 12.1462 14.0262 12.0692 13.7696 12.0247V5.18774C13.7696 3.05394 15.5057 1.31792 17.6395 1.31792H27.3603C29.4942 1.31792 31.2301 3.05394 31.2301 5.18774V6.22362C31.2301 6.58758 31.5251 6.88263 31.889 6.88263C32.2529 6.88263 32.548 6.58767 32.548 6.22362V5.18774C32.548 2.32726 30.2207 0 27.3603 0H17.6395C14.7789 0 12.4517 2.32726 12.4517 5.18774V11.7294C11.8434 12.0676 11.439 12.719 11.439 13.4381V14.4397C11.439 15.5172 12.3155 16.3936 13.3929 16.3936H13.8071C13.981 17.6145 14.6647 19.4036 15.9416 21.0276C16.086 21.2113 16.2435 21.3991 16.4133 21.5875C14.1299 22.3128 12.4647 24.3657 12.2581 26.7888L6.88851 28.4089C5.66885 28.7768 4.77799 29.7855 4.56354 31.0412L3.75512 35.774C3.69386 36.1328 3.93504 36.4732 4.29372 36.5345C4.65231 36.5959 4.99289 36.3546 5.05423 35.9959L5.86265 31.263C5.99238 30.5033 6.53132 29.8932 7.26917 29.6706L12.2354 28.1722V29.4757C11.0971 29.6852 10.1284 30.4672 9.72949 31.5506C9.62358 31.8382 9.55775 32.1393 9.53384 32.4455L9.05387 38.6062C9.01766 39.0703 9.17824 39.5324 9.4942 39.8739C9.81017 40.2154 10.2583 40.4114 10.7237 40.4114H11.5453C11.9093 40.4114 12.2043 40.1164 12.2043 39.7524C12.2043 39.3884 11.9093 39.0935 11.5453 39.0935H10.7237C10.6245 39.0935 10.529 39.0518 10.4616 38.9789C10.3943 38.9061 10.3601 38.8077 10.3678 38.7088L10.8478 32.548C10.8623 32.3625 10.9021 32.1801 10.9663 32.006C11.2438 31.2523 11.9934 30.7419 12.8316 30.7361L12.9401 30.7353C12.9452 30.7352 12.9502 30.7352 12.9552 30.7352C13.7699 30.7352 14.4911 31.1971 14.7952 31.9153C14.8806 32.1166 14.9324 32.3295 14.9495 32.548L15.4296 38.7089C15.4373 38.8077 15.4031 38.9061 15.3358 38.979C15.2684 39.0517 15.1729 39.0935 15.0737 39.0935H14.2521C13.8881 39.0935 13.5931 39.3884 13.5931 39.7524C13.5931 40.1164 13.8881 40.4114 14.2521 40.4114H15.0737C15.5391 40.4114 15.9873 40.2155 16.3032 39.8739C16.6192 39.5322 16.7798 39.0702 16.7436 38.6063L16.2635 32.4455C16.2353 32.085 16.1496 31.7335 16.0087 31.401C15.5747 30.3765 14.6464 29.6641 13.5533 29.4714V27.7746L15.8185 27.0911C16.0247 27.5251 16.4331 28.4632 17.2421 30.4853C18.0575 32.5256 19.0709 35.1408 20.0429 37.6831C20.0499 37.7045 20.0579 37.7253 20.0668 37.7457C20.7155 39.4429 21.3447 41.1053 21.8828 42.5393C21.9793 42.7965 22.2252 42.9668 22.4998 42.9668C22.7745 42.9668 23.0203 42.7965 23.1168 42.5393C23.6549 41.1053 24.2841 39.4429 24.9328 37.7457C24.9419 37.7253 24.9498 37.7044 24.9567 37.6831C25.928 35.1423 26.9409 32.5288 27.7559 30.4891C28.566 28.4643 28.9748 27.5255 29.181 27.0911L31.4463 27.7746V31.6668C29.8767 31.9717 28.6878 33.356 28.6878 35.0134C28.6878 36.8935 30.2174 38.4231 32.0976 38.4231C33.9777 38.4231 35.5073 36.8936 35.5073 35.0134C35.5073 33.3614 34.3262 31.9805 32.7642 31.6696V28.1723L37.7306 29.6707C38.4684 29.8933 39.0073 30.5034 39.1371 31.2631L41.1278 42.9177C41.1608 43.111 41.1094 43.2999 40.983 43.4498C40.8566 43.5996 40.6789 43.6822 40.4829 43.6822H4.51678C4.3207 43.6822 4.14316 43.5996 4.01669 43.4498C3.8903 43.2999 3.8388 43.1111 3.87184 42.9177L4.52882 39.0714C4.59008 38.7127 4.34891 38.3723 3.99023 38.311C3.63164 38.2495 3.29106 38.4909 3.22971 38.8496L2.57273 42.6959C2.47473 43.27 2.6339 43.8545 3.00937 44.2997C3.38502 44.7448 3.93442 45 4.51678 45H40.4829C41.0652 45 41.6147 44.7448 41.9903 44.2996C42.3657 43.8544 42.5249 43.2699 42.4269 42.6958ZM31.238 13.3672C31.5891 13.2797 31.871 13.2812 31.8741 13.2813C31.9877 13.2828 32.0981 13.2563 32.1962 13.2049C32.2255 13.2779 32.2428 13.3564 32.2428 13.4381V14.4397C32.2428 14.7904 31.9576 15.0757 31.6069 15.0757H31.238V13.3672ZM13.7616 15.0757H13.3928C13.0421 15.0757 12.7568 14.7904 12.7568 14.4397V13.4381C12.7568 13.3564 12.7742 13.2779 12.8035 13.205C12.9015 13.2564 13.0119 13.2829 13.1255 13.2813C13.1305 13.2822 13.4116 13.2806 13.7616 13.3675V15.0757ZM15.0796 15.8146V14.0833C15.2793 14.1432 15.4977 14.135 15.6993 14.0509C16.0451 13.9066 16.2685 13.5715 16.2685 13.197V7.11369C16.2685 6.3733 16.871 5.7709 17.6113 5.7709H19.4302C19.7544 5.7709 20.071 5.88384 20.322 6.08897L20.5004 6.23487C21.063 6.69489 21.7731 6.94811 22.4998 6.94811C23.2266 6.94811 23.9367 6.69481 24.4992 6.23487L24.6777 6.08897C24.9285 5.88384 25.2453 5.7709 25.5694 5.7709H27.3883C28.1287 5.7709 28.7311 6.3733 28.7311 7.11369V13.197C28.7311 13.5715 28.9545 13.9067 29.3004 14.051C29.4158 14.0992 29.5368 14.1225 29.6567 14.1225C29.746 14.1225 29.8347 14.1094 29.9201 14.0839V15.8146C29.9201 16.7767 29.2549 18.6451 28.0222 20.2129C27.6138 20.7323 27.0889 21.2902 26.4427 21.7778C26.4222 21.7915 26.4026 21.8064 26.3839 21.8222C25.3827 22.5624 24.0954 23.1295 22.4998 23.1295C20.9043 23.1295 19.6169 22.5624 18.6157 21.8221C18.5969 21.8064 18.5774 21.7915 18.557 21.7779C17.9108 21.2902 17.3859 20.7323 16.9775 20.2129C15.7448 18.6452 15.0796 16.7767 15.0796 15.8146ZM26.817 26.4612L22.4998 29.688L18.1826 26.4612C18.6107 25.9171 18.8506 25.2186 18.8506 24.5953V23.5331C19.8658 24.079 21.0772 24.4475 22.4998 24.4475C23.9224 24.4475 25.1339 24.079 26.149 23.5331V24.5953C26.149 25.2186 26.3889 25.9171 26.817 26.4612ZM17.0829 25.7257C16.7309 25.5916 16.3408 25.5697 15.9717 25.6698C15.9556 25.6736 15.9398 25.6779 15.9244 25.6824L13.6477 26.3694C14.0328 24.476 15.5702 22.9691 17.5327 22.6772V24.5953C17.5327 25.0087 17.3481 25.4362 17.0829 25.7257ZM18.8713 31.0156C18.8701 31.0126 18.8689 31.0095 18.8677 31.0065C18.8343 30.922 18.8014 30.8387 18.7687 30.7564C18.7628 30.7414 18.7569 30.7266 18.751 30.7118C18.719 30.6312 18.6873 30.5512 18.656 30.4726C18.6538 30.467 18.6516 30.4616 18.6494 30.4559C18.5518 30.2105 18.4576 29.975 18.3671 29.7494C18.3605 29.733 18.3539 29.7164 18.3473 29.7002C18.3213 29.6355 18.2957 29.5718 18.2703 29.5088C18.261 29.4857 18.2518 29.4629 18.2426 29.44C18.218 29.379 18.1935 29.3184 18.1694 29.2591C18.1622 29.2413 18.1552 29.2241 18.1481 29.2064C18.1044 29.0987 18.0617 28.9936 18.02 28.8912C18.0088 28.8635 17.9973 28.8353 17.9861 28.808C17.9698 28.7681 17.9539 28.7292 17.9379 28.6901C17.9206 28.6479 17.9034 28.6061 17.8865 28.565C17.8802 28.5496 17.8736 28.5333 17.8673 28.518C17.8622 28.5057 17.8575 28.4944 17.8525 28.4822C17.7764 28.2973 17.7041 28.123 17.6354 27.9591C17.6349 27.9577 17.6343 27.9564 17.6338 27.9551C17.5972 27.8678 17.5614 27.7826 17.5271 27.7014C17.5092 27.6593 17.4916 27.6179 17.4744 27.5773L21.1873 30.3523L19.6359 31.0114C19.6332 31.0126 19.6304 31.0137 19.6276 31.0149L18.9799 31.2901C18.9431 31.1972 18.9072 31.1062 18.8713 31.0156ZM20.4437 35.0505C20.3135 34.7128 20.1824 34.3731 20.051 34.0337C19.8455 33.5029 19.6493 32.9983 19.4614 32.5175L19.7074 32.413L20.7121 33.581L20.4437 35.0505ZM22.5126 40.4064C22.4937 40.3672 22.4712 40.3302 22.4452 40.2957C22.1474 39.5087 21.7694 38.5128 21.3512 37.4171L21.9664 34.0487H23.0332L23.6485 37.4171C23.2102 38.565 22.8165 39.603 22.5126 40.4064ZM23.2804 32.7308H21.7193L20.9805 31.8721L22.4998 31.2267L24.0191 31.8721L23.2804 32.7308ZM24.9486 34.0337C24.8172 34.3731 24.6861 34.7128 24.5559 35.0505L24.2875 33.5809L25.2923 32.4129L25.5382 32.5174C25.3504 32.9982 25.1541 33.5029 24.9486 34.0337ZM27.4727 27.7014C27.4401 27.7784 27.4061 27.8591 27.3716 27.9416C27.3671 27.9523 27.3625 27.9631 27.3581 27.9739C27.3239 28.0557 27.2891 28.1392 27.253 28.2261C27.2507 28.2318 27.2482 28.2379 27.2458 28.2437C27.2147 28.3186 27.1828 28.396 27.1504 28.4748C27.1443 28.4896 27.1386 28.5032 27.1325 28.518C27.1253 28.5357 27.1176 28.5544 27.1103 28.5723C27.0959 28.6074 27.0812 28.6433 27.0664 28.6791C27.0483 28.7234 27.0303 28.7674 27.0118 28.8127C27.0059 28.8271 26.9998 28.8421 26.9938 28.8566C26.948 28.969 26.9009 29.0849 26.8527 29.2039C26.8451 29.2225 26.8377 29.2408 26.8301 29.2597C26.8063 29.3185 26.782 29.3785 26.7577 29.4389C26.7482 29.4625 26.7386 29.4861 26.729 29.51C26.7039 29.5723 26.6785 29.6354 26.6528 29.6994C26.6456 29.7172 26.6383 29.7355 26.6311 29.7534C26.5417 29.976 26.449 30.2081 26.3528 30.45C26.3496 30.458 26.3464 30.4658 26.3433 30.4739C26.3122 30.552 26.2807 30.6315 26.2489 30.7115C26.243 30.7265 26.237 30.7414 26.231 30.7564C26.1982 30.8392 26.165 30.9229 26.1315 31.0079C26.1308 31.0095 26.1302 31.0111 26.1296 31.0126C26.0934 31.1041 26.057 31.1963 26.0199 31.2903L25.3716 31.0148C25.3693 31.0139 25.367 31.0129 25.3648 31.0119L23.8125 30.3525L27.5254 27.5774C27.508 27.6179 27.4904 27.6592 27.4727 27.7014ZM29.0753 25.6825C29.0752 25.6825 29.075 25.6824 29.0749 25.6824C29.0744 25.6823 29.0738 25.6822 29.0732 25.6819C28.6909 25.5672 28.2831 25.5862 27.9169 25.7257C27.6515 25.4362 27.467 25.0087 27.467 24.5953V22.6762C29.4419 22.9673 30.9746 24.4601 31.3546 26.3702L29.0753 25.6825ZM34.1894 35.0134C34.1894 36.1669 33.2509 37.1052 32.0976 37.1052C30.9442 37.1052 30.0058 36.1669 30.0058 35.0134C30.0058 33.86 30.9442 32.9216 32.0976 32.9216C33.2509 32.9216 34.1894 33.86 34.1894 35.0134Z" fill="#2F80F3"/>
</svg>
